<?xml version="1.0" standalone="no"?>
<!DOCTYPE svg PUBLIC "-//W3C//DTD SVG 20010904//EN"
 "http://www.w3.org/TR/2001/REC-SVG-20010904/DTD/svg10.dtd">
<svg version="1.0" xmlns="http://www.w3.org/2000/svg"
 width="192.000000pt" height="192.000000pt" viewBox="0 0 192.000000 192.000000"
 preserveAspectRatio="xMidYMid meet">
<metadata>
Created by potrace 1.11, written by Peter Selinger 2001-2013
</metadata>
<g transform="translate(0.000000,192.000000) scale(0.100000,-0.100000)"
fill="#000000" stroke="none">
<path d="M600 1789 c0 -4 -8 -10 -18 -14 -19 -5 -42 -43 -49 -78 -3 -17 21
-75 36 -87 4 -3 26 -35 50 -72 24 -37 47 -65 52 -62 5 3 9 11 8 17 -1 7 3 25
9 40 7 16 12 35 12 43 0 8 5 14 12 14 6 0 8 3 5 7 -4 3 -1 13 6 21 10 13 9 14
-1 8 -11 -7 -12 -4 -3 12 21 40 13 90 -19 121 -28 27 -100 48 -100 30z"/>
<path d="M1653 1645 c-12 -12 -34 -27 -50 -35 -15 -8 -33 -21 -39 -29 -7 -8
-16 -11 -24 -6 -8 5 -11 4 -6 -3 3 -6 -3 -13 -14 -17 -11 -3 -20 -11 -20 -16
0 -5 -6 -9 -13 -9 -7 0 -24 -11 -39 -25 -15 -14 -31 -25 -36 -25 -5 0 -22 -11
-37 -24 -16 -14 -32 -23 -37 -20 -4 3 -8 0 -8 -6 0 -6 -5 -8 -12 -4 -6 4 -17
-1 -25 -11 -7 -11 -13 -16 -13 -12 0 4 -11 0 -25 -9 -14 -9 -22 -21 -18 -28 3
-6 2 -8 -2 -3 -9 7 -35 -7 -95 -52 -19 -14 -39 -26 -43 -26 -4 0 -12 -7 -17
-15 -5 -8 -10 -12 -10 -7 0 4 -9 -1 -19 -10 -38 -35 -49 -42 -55 -36 -3 4 -6
2 -6 -4 0 -6 -13 -16 -30 -22 -18 -6 -30 -6 -30 0 0 5 -3 8 -7 7 -5 -1 -21 2
-38 7 -16 5 -41 9 -55 11 -14 1 -27 3 -30 4 -3 1 -9 1 -15 0 -5 -1 -37 -4 -70
-5 -33 -2 -67 -5 -75 -8 -61 -16 -100 -32 -100 -40 0 -6 -3 -8 -6 -4 -8 8 -82
-39 -116 -74 -14 -15 -29 -25 -31 -22 -3 2 -13 -9 -23 -26 -10 -17 -21 -31
-24 -31 -3 0 -14 -17 -25 -37 -11 -21 -24 -41 -30 -45 -5 -4 -7 -8 -2 -8 4 0
0 -11 -9 -24 -8 -14 -15 -27 -15 -30 1 -4 0 -8 0 -11 -1 -3 -3 -9 -4 -15 -1
-5 -4 -12 -5 -15 -1 -3 -4 -14 -5 -25 -1 -11 -3 -21 -5 -22 -8 -10 -5 -48 4
-48 8 0 8 -3 1 -8 -11 -7 -15 -92 -5 -92 3 0 6 -12 7 -27 4 -50 11 -80 27
-111 9 -17 16 -38 16 -47 0 -10 5 -13 11 -9 7 4 10 1 7 -7 -3 -8 4 -22 15 -31
11 -10 17 -18 13 -18 -4 0 17 -23 46 -52 29 -29 52 -56 51 -60 -2 -4 5 -4 14
-1 10 4 14 2 10 -4 -4 -6 14 -20 43 -32 28 -12 49 -25 46 -29 -2 -4 14 -8 37
-9 22 -1 43 -6 46 -11 3 -5 14 -8 23 -6 10 1 22 -5 28 -14 8 -15 9 -15 10 3 0
11 4 16 8 10 9 -13 121 -13 141 -1 11 7 12 6 6 -5 -8 -12 -6 -12 8 0 9 7 17
11 17 7 0 -3 12 -1 28 5 63 25 118 30 115 12 -2 -7 3 -10 11 -7 8 3 17 1 21
-5 3 -6 12 -11 18 -11 7 0 6 4 -3 10 -21 14 -5 12 33 -3 18 -7 56 -12 85 -12
29 0 52 -4 52 -10 0 -5 4 -4 9 4 6 9 10 10 16 2 5 -9 10 -9 21 0 7 6 21 9 29
5 8 -3 15 -1 15 4 0 4 17 7 37 5 24 -2 32 0 22 6 -8 5 -11 9 -6 10 14 3 22 6
52 19 17 7 33 13 38 12 4 -1 7 3 7 9 0 6 7 8 16 5 12 -5 15 -2 10 10 -6 14 -4
15 9 4 9 -7 15 -9 13 -4 -4 11 44 60 54 57 5 -2 8 1 8 5 0 5 8 17 18 28 37 41
71 92 65 98 -4 3 -1 6 6 6 7 0 9 5 6 10 -3 6 -2 10 3 10 9 0 46 102 47 130 0
8 3 20 6 25 9 15 2 197 -8 204 -5 3 -9 13 -9 21 -1 30 -40 115 -66 144 -10 11
-18 26 -18 33 0 8 -4 11 -10 8 -5 -3 -10 -1 -10 5 0 19 -116 120 -138 120 -5
0 -15 7 -22 15 -7 8 -16 13 -20 10 -5 -3 -11 -1 -15 5 -4 6 -11 8 -16 5 -5 -4
-9 -1 -9 5 0 6 -4 8 -10 5 -5 -3 -10 -4 -10 -1 0 2 15 14 34 25 41 26 50 45
30 66 -9 8 -12 15 -7 15 4 0 1 5 -7 10 -12 8 -10 10 8 10 22 0 52 20 54 37 3
30 23 50 46 50 48 0 90 23 116 64 15 21 33 40 41 40 8 1 20 3 25 4 6 1 15 3
20 4 6 0 10 6 10 12 0 6 7 17 15 25 13 13 13 18 -1 40 -9 13 -13 24 -10 24 4
0 -4 11 -16 23 -29 29 -46 29 -75 2z"/>
<path d="M1108 1614 c-16 -8 -28 -21 -28 -28 0 -8 -5 -16 -10 -18 -9 -3 -20
-35 -22 -65 -1 -7 -5 -13 -9 -13 -4 0 -6 -9 -4 -20 2 -11 -1 -20 -6 -20 -6 0
-7 -9 -4 -21 5 -13 3 -19 -3 -15 -5 3 -12 -5 -14 -19 -4 -19 -1 -25 13 -25 11
0 19 4 19 10 0 5 7 7 15 4 8 -4 15 -2 15 3 0 5 8 9 18 10 9 1 35 10 57 19 22
10 42 18 45 19 40 12 71 62 66 106 -6 64 -90 105 -148 73z"/>
<path d="M90 1410 c0 -6 -5 -8 -10 -5 -6 4 -23 -7 -39 -24 -21 -22 -28 -39
-27 -63 3 -45 24 -85 50 -93 31 -10 195 -11 189 -1 -3 4 5 5 17 1 32 -10 45
15 20 40 -64 64 -108 115 -102 115 13 0 -44 27 -71 34 -17 4 -27 2 -27 -4z"/>
<path d="M290 219 c0 -5 5 -7 10 -4 6 3 10 8 10 11 0 2 -4 4 -10 4 -5 0 -10
-5 -10 -11z"/>
<path d="M375 220 c3 -5 8 -10 11 -10 2 0 4 5 4 10 0 6 -5 10 -11 10 -5 0 -7
-4 -4 -10z"/>
<path d="M410 220 c0 -5 5 -10 11 -10 5 0 7 5 4 10 -3 6 -8 10 -11 10 -2 0 -4
-4 -4 -10z"/>
<path d="M1735 220 c-3 -5 -1 -10 4 -10 6 0 11 5 11 10 0 6 -2 10 -4 10 -3 0
-8 -4 -11 -10z"/>
<path d="M1635 211 c-3 -5 -2 -12 3 -15 5 -3 9 1 9 9 0 17 -3 19 -12 6z"/>
<path d="M1834 188 l-19 -23 23 19 c12 11 22 21 22 23 0 8 -8 2 -26 -19z"/>
<path d="M175 180 c-3 -5 -1 -10 4 -10 6 0 11 5 11 10 0 6 -2 10 -4 10 -3 0
-8 -4 -11 -10z"/>
<path d="M370 179 c0 -5 5 -7 10 -4 6 3 10 8 10 11 0 2 -4 4 -10 4 -5 0 -10
-5 -10 -11z"/>
<path d="M1630 176 c0 -2 8 -10 18 -17 15 -13 16 -12 3 4 -13 16 -21 21 -21
13z"/>
<path d="M596 142 c-3 -5 1 -9 9 -9 8 0 12 4 9 9 -3 4 -7 8 -9 8 -2 0 -6 -4
-9 -8z"/>
<path d="M930 140 c0 -5 5 -10 11 -10 5 0 7 5 4 10 -3 6 -8 10 -11 10 -2 0 -4
-4 -4 -10z"/>
<path d="M1175 140 c3 -5 8 -10 11 -10 2 0 4 5 4 10 0 6 -5 10 -11 10 -5 0 -7
-4 -4 -10z"/>
<path d="M1290 139 c0 -5 5 -7 10 -4 6 3 10 8 10 11 0 2 -4 4 -10 4 -5 0 -10
-5 -10 -11z"/>
</g>
</svg>
